<mxfile host="app.diagrams.net" agent="Mozilla/5.0 (Windows NT 10.0; Win64; x64) AppleWebKit/537.36 (KHTML, like Gecko) Chrome/133.0.0.0 Safari/537.36" version="26.0.16">
  <diagram name="Page-1" id="0Q4CkF8yUHy0kHbtkAgS">
    <mxGraphModel dx="899" dy="472" grid="0" gridSize="10" guides="1" tooltips="1" connect="1" arrows="1" fold="1" page="1" pageScale="1" pageWidth="850" pageHeight="1100" math="0" shadow="0">
      <root>
        <mxCell id="0" />
        <mxCell id="1" parent="0" />
        <mxCell id="aXHSpkGwQWr4jAMkw4Bg-9" value="" style="edgeStyle=orthogonalEdgeStyle;rounded=0;orthogonalLoop=1;jettySize=auto;html=1;" edge="1" parent="1" source="aXHSpkGwQWr4jAMkw4Bg-2" target="aXHSpkGwQWr4jAMkw4Bg-6">
          <mxGeometry relative="1" as="geometry" />
        </mxCell>
        <mxCell id="aXHSpkGwQWr4jAMkw4Bg-2" value="rgb led" style="rounded=0;whiteSpace=wrap;html=1;" vertex="1" parent="1">
          <mxGeometry x="303" y="42" width="120" height="60" as="geometry" />
        </mxCell>
        <mxCell id="aXHSpkGwQWr4jAMkw4Bg-3" value="led bar" style="rounded=0;whiteSpace=wrap;html=1;" vertex="1" parent="1">
          <mxGeometry x="465" y="42" width="120" height="60" as="geometry" />
        </mxCell>
        <mxCell id="aXHSpkGwQWr4jAMkw4Bg-4" value="keypad" style="rounded=0;whiteSpace=wrap;html=1;" vertex="1" parent="1">
          <mxGeometry x="627" y="42" width="120" height="60" as="geometry" />
        </mxCell>
        <mxCell id="aXHSpkGwQWr4jAMkw4Bg-10" value="" style="edgeStyle=orthogonalEdgeStyle;rounded=0;orthogonalLoop=1;jettySize=auto;html=1;" edge="1" parent="1" source="aXHSpkGwQWr4jAMkw4Bg-6" target="aXHSpkGwQWr4jAMkw4Bg-7">
          <mxGeometry relative="1" as="geometry" />
        </mxCell>
        <mxCell id="aXHSpkGwQWr4jAMkw4Bg-6" value="pwm" style="rounded=0;whiteSpace=wrap;html=1;" vertex="1" parent="1">
          <mxGeometry x="303" y="139" width="120" height="60" as="geometry" />
        </mxCell>
        <mxCell id="aXHSpkGwQWr4jAMkw4Bg-7" value="timers" style="rounded=0;whiteSpace=wrap;html=1;" vertex="1" parent="1">
          <mxGeometry x="303" y="236" width="120" height="60" as="geometry" />
        </mxCell>
        <mxCell id="aXHSpkGwQWr4jAMkw4Bg-8" value="gpio" style="rounded=0;whiteSpace=wrap;html=1;" vertex="1" parent="1">
          <mxGeometry x="465" y="236" width="120" height="60" as="geometry" />
        </mxCell>
        <mxCell id="aXHSpkGwQWr4jAMkw4Bg-11" value="" style="endArrow=classic;html=1;rounded=0;exitX=1;exitY=0.5;exitDx=0;exitDy=0;entryX=0;entryY=0;entryDx=0;entryDy=0;" edge="1" parent="1" source="aXHSpkGwQWr4jAMkw4Bg-6" target="aXHSpkGwQWr4jAMkw4Bg-8">
          <mxGeometry width="50" height="50" relative="1" as="geometry">
            <mxPoint x="400" y="310" as="sourcePoint" />
            <mxPoint x="450" y="260" as="targetPoint" />
          </mxGeometry>
        </mxCell>
        <mxCell id="aXHSpkGwQWr4jAMkw4Bg-12" value="" style="endArrow=classic;html=1;rounded=0;exitX=0.5;exitY=1;exitDx=0;exitDy=0;entryX=0.5;entryY=0;entryDx=0;entryDy=0;" edge="1" parent="1" source="aXHSpkGwQWr4jAMkw4Bg-3" target="aXHSpkGwQWr4jAMkw4Bg-8">
          <mxGeometry width="50" height="50" relative="1" as="geometry">
            <mxPoint x="506" y="181" as="sourcePoint" />
            <mxPoint x="556" y="131" as="targetPoint" />
          </mxGeometry>
        </mxCell>
        <mxCell id="aXHSpkGwQWr4jAMkw4Bg-13" value="" style="endArrow=classic;html=1;rounded=0;exitX=0.5;exitY=1;exitDx=0;exitDy=0;entryX=1;entryY=0;entryDx=0;entryDy=0;" edge="1" parent="1" source="aXHSpkGwQWr4jAMkw4Bg-4" target="aXHSpkGwQWr4jAMkw4Bg-8">
          <mxGeometry width="50" height="50" relative="1" as="geometry">
            <mxPoint x="535" y="112" as="sourcePoint" />
            <mxPoint x="535" y="246" as="targetPoint" />
          </mxGeometry>
        </mxCell>
        <mxCell id="aXHSpkGwQWr4jAMkw4Bg-14" value="" style="endArrow=classic;html=1;rounded=0;exitX=0.5;exitY=1;exitDx=0;exitDy=0;entryX=1;entryY=0;entryDx=0;entryDy=0;" edge="1" parent="1" source="aXHSpkGwQWr4jAMkw4Bg-3" target="aXHSpkGwQWr4jAMkw4Bg-7">
          <mxGeometry width="50" height="50" relative="1" as="geometry">
            <mxPoint x="697" y="112" as="sourcePoint" />
            <mxPoint x="595" y="246" as="targetPoint" />
          </mxGeometry>
        </mxCell>
        <mxCell id="aXHSpkGwQWr4jAMkw4Bg-15" value="" style="endArrow=none;dashed=1;html=1;rounded=0;" edge="1" parent="1">
          <mxGeometry width="50" height="50" relative="1" as="geometry">
            <mxPoint x="244" y="123" as="sourcePoint" />
            <mxPoint x="794" y="125" as="targetPoint" />
          </mxGeometry>
        </mxCell>
        <mxCell id="aXHSpkGwQWr4jAMkw4Bg-16" value="" style="endArrow=none;dashed=1;html=1;rounded=0;" edge="1" parent="1">
          <mxGeometry width="50" height="50" relative="1" as="geometry">
            <mxPoint x="243" y="216" as="sourcePoint" />
            <mxPoint x="793" y="218" as="targetPoint" />
          </mxGeometry>
        </mxCell>
        <mxCell id="aXHSpkGwQWr4jAMkw4Bg-17" value="External Devices" style="text;strokeColor=none;fillColor=none;align=left;verticalAlign=middle;spacingLeft=4;spacingRight=4;overflow=hidden;points=[[0,0.5],[1,0.5]];portConstraint=eastwest;rotatable=0;whiteSpace=wrap;html=1;" vertex="1" parent="1">
          <mxGeometry x="128" y="57" width="107" height="30" as="geometry" />
        </mxCell>
        <mxCell id="aXHSpkGwQWr4jAMkw4Bg-18" value="Internal MCU Driver" style="text;strokeColor=none;fillColor=none;align=left;verticalAlign=middle;spacingLeft=4;spacingRight=4;overflow=hidden;points=[[0,0.5],[1,0.5]];portConstraint=eastwest;rotatable=0;whiteSpace=wrap;html=1;" vertex="1" parent="1">
          <mxGeometry x="128" y="154" width="125" height="30" as="geometry" />
        </mxCell>
        <mxCell id="aXHSpkGwQWr4jAMkw4Bg-19" value="Built-In" style="text;strokeColor=none;fillColor=none;align=left;verticalAlign=middle;spacingLeft=4;spacingRight=4;overflow=hidden;points=[[0,0.5],[1,0.5]];portConstraint=eastwest;rotatable=0;whiteSpace=wrap;html=1;" vertex="1" parent="1">
          <mxGeometry x="128" y="251" width="107" height="30" as="geometry" />
        </mxCell>
      </root>
    </mxGraphModel>
  </diagram>
</mxfile>
